<?xml version="1.0" encoding="UTF-8"?>
<svg version="1.1" xmlns="http://www.w3.org/2000/svg" width="16" height="16">
<path d="M0 0 C0 5.28 0 10.56 0 16 C-4.62 16 -9.24 16 -14 16 C-15.00467093 11.98131626 -15.43279185 9.11152256 -15 5 C-11.04541079 -1.1955231 -6.70736354 -0.44715757 0 0 Z " fill="#B98D15" transform="translate(16,0)"/>
<path d="M0 0 C-0.99 1.485 -0.99 1.485 -2 3 C-2.99 3 -3.98 3 -5 3 C-5.226875 3.721875 -5.45375 4.44375 -5.6875 5.1875 C-7.25462677 8.54562879 -9.328216 10.4618052 -12 13 C-12.66 13.99 -13.32 14.98 -14 16 C-15.19354869 12.27016034 -15.40965996 8.89176961 -15 5 C-11.12868671 -1.06505749 -6.52644349 -0.57027176 0 0 Z " fill="#D8810E" transform="translate(16,0)"/>
<path d="M0 0 C0.66 0.99 1.32 1.98 2 3 C1.67 3.99 1.34 4.98 1 6 C0.34 6.309375 -0.32 6.61875 -1 6.9375 C-3.20605562 7.82027141 -3.20605562 7.82027141 -3.75 10.125 C-3.8325 10.74375 -3.915 11.3625 -4 12 C-5.32 12 -6.64 12 -8 12 C-7.41463247 8.33939179 -5.916761 6.45464836 -3.4375 3.75 C-2.79683594 3.04359375 -2.15617188 2.3371875 -1.49609375 1.609375 C-0.75552734 0.81273437 -0.75552734 0.81273437 0 0 Z " fill="#EEB908" transform="translate(11,4)"/>
<path d="M0 0 C1.37478516 0.01740234 1.37478516 0.01740234 2.77734375 0.03515625 C3.69644531 0.04417969 4.61554687 0.05320313 5.5625 0.0625 C6.27277344 0.07410156 6.98304687 0.08570313 7.71484375 0.09765625 C6.72484375 1.58265625 6.72484375 1.58265625 5.71484375 3.09765625 C4.72484375 3.09765625 3.73484375 3.09765625 2.71484375 3.09765625 C2.38484375 4.08765625 2.05484375 5.07765625 1.71484375 6.09765625 C0.72484375 5.76765625 -0.26515625 5.43765625 -1.28515625 5.09765625 C-1.28515625 4.10765625 -1.28515625 3.11765625 -1.28515625 2.09765625 C-1.94515625 1.76765625 -2.60515625 1.43765625 -3.28515625 1.09765625 C-2.28515625 0.09765625 -2.28515625 0.09765625 0 0 Z " fill="#8B6E33" transform="translate(8.28515625,-0.09765625)"/>
<path d="M0 0 C0.66 0 1.32 0 2 0 C2 2.31 2 4.62 2 7 C-0.31 7 -2.62 7 -5 7 C-3.625 4.5 -3.625 4.5 -2 2 C-1.34 2 -0.68 2 0 2 C0 1.34 0 0.68 0 0 Z " fill="#E5AF08" transform="translate(14,9)"/>
<path d="M0 0 C0 2.83967231 -0.40267181 5.23735711 -1 8 C-0.54625 7.505 -0.0925 7.01 0.375 6.5 C2 5 2 5 4 5 C2.47291037 8.43595166 0.40072955 11.11912454 -2 14 C-3.18234854 10.30516081 -3.2804701 6.85646386 -3 3 C-1.5 1.0625 -1.5 1.0625 0 0 Z " fill="#80510C" transform="translate(4,2)"/>
<path d="M0 0 C2.0625 0.4375 2.0625 0.4375 4 1 C2.71937515 2.7074998 1.38232443 4.37373596 0 6 C-0.66 6 -1.32 6 -2 6 C-1.125 1.125 -1.125 1.125 0 0 Z " fill="#9E3F0F" transform="translate(9,10)"/>
<path d="M0 0 C0.66 0 1.32 0 2 0 C2 1.65 2 3.3 2 5 C0.68 5 -0.64 5 -2 5 C-1.125 1.125 -1.125 1.125 0 0 Z " fill="#E3AB06" transform="translate(5,11)"/>
</svg>
